<svg width="24" height="23" viewBox="0 0 24 23" fill="none" xmlns="http://www.w3.org/2000/svg">
<path d="M22.5 10.8405C22.504 12.3804 22.1443 13.8994 21.45 15.2739C20.6268 16.9209 19.3614 18.3062 17.7954 19.2747C16.2293 20.2432 14.4246 20.7565 12.5833 20.7572C11.0435 20.7612 9.52447 20.4014 8.15 19.7072L1.5 21.9239L3.71667 15.2739C3.02242 13.8994 2.66265 12.3804 2.66667 10.8405C2.66738 8.99925 3.18071 7.19452 4.14917 5.6285C5.11763 4.06249 6.50296 2.79702 8.15 1.97386C9.52447 1.27961 11.0435 0.919847 12.5833 0.923861H13.1667C15.5984 1.05802 17.8952 2.08442 19.6173 3.80653C21.3395 5.52865 22.3658 7.82546 22.5 10.2572V10.8405Z" fill="#F4F4F4" stroke="white" stroke-width="1.5" stroke-linecap="round" stroke-linejoin="round"/>
</svg>
