<svg width="25" height="23" viewBox="0 0 25 23" fill="none" xmlns="http://www.w3.org/2000/svg">
<path d="M23.4186 0.1L15.1423 9.73514L15.0903 9.7957L15.1378 9.85984L24.8014 22.9H17.0958L10.8622 14.4891L10.7876 14.3885L10.706 14.4835L3.4768 22.9H0.729062L9.46223 12.7313L9.51423 12.6707L9.46671 12.6066L0.198572 0.1H7.90418L13.7424 7.97844L13.817 8.07908L13.8986 7.98406L20.6709 0.1H23.4186ZM18.1015 20.7595L18.1315 20.8H18.1818H20.4545H20.6531L20.5349 20.6405L6.89852 2.24046L6.86854 2.2H6.81818H4.54545H4.34688L4.46511 2.35954L18.1015 20.7595Z" fill="#1BB96B" stroke="#192666" stroke-width="0.2"/>
</svg>
