<svg width="27" height="27" viewBox="0 0 27 27" fill="none" xmlns="http://www.w3.org/2000/svg">
<path d="M16.5583 6.257C17.6979 6.47933 18.7451 7.03663 19.5661 7.85759C20.387 8.67855 20.9443 9.72581 21.1667 10.8653M16.5583 1.59033C18.9258 1.85334 21.1335 2.91354 22.819 4.59684C24.5044 6.28015 25.5674 8.48651 25.8333 10.8537M24.6667 20.1637V23.6637C24.668 23.9886 24.6014 24.3102 24.4713 24.6079C24.3411 24.9056 24.1502 25.1729 23.9108 25.3925C23.6713 25.6122 23.3887 25.7794 23.0809 25.8835C22.7731 25.9876 22.4469 26.0262 22.1233 25.997C18.5333 25.6069 15.0848 24.3802 12.055 22.4153C9.23614 20.6241 6.84623 18.2342 5.055 15.4153C3.08331 12.3717 1.85629 8.90649 1.47334 5.30033C1.44418 4.97771 1.48252 4.65255 1.58592 4.34556C1.68932 4.03857 1.8555 3.75647 2.0739 3.51722C2.29229 3.27798 2.55811 3.08683 2.85443 2.95594C3.15074 2.82506 3.47107 2.7573 3.795 2.757H7.295C7.86119 2.75143 8.41009 2.95192 8.83939 3.32112C9.26869 3.69032 9.54909 4.20302 9.62834 4.76367C9.77606 5.88374 10.05 6.98351 10.445 8.042C10.602 8.45958 10.6359 8.9134 10.5429 9.34969C10.4498 9.78599 10.2337 10.1865 9.92 10.5037L8.43834 11.9853C10.0992 14.9061 12.5175 17.3245 15.4383 18.9853L16.92 17.5037C17.2372 17.19 17.6377 16.9738 18.074 16.8808C18.5103 16.7877 18.9641 16.8217 19.3817 16.9787C20.4402 17.3736 21.5399 17.6476 22.66 17.7953C23.2267 17.8753 23.7443 18.1607 24.1143 18.5974C24.4843 19.0341 24.6809 19.5915 24.6667 20.1637Z" fill="#F4F4F4"/>
<path d="M16.5583 6.257C17.6979 6.47933 18.7451 7.03663 19.5661 7.85759C20.387 8.67855 20.9443 9.72581 21.1667 10.8653M16.5583 1.59033C18.9258 1.85334 21.1335 2.91354 22.819 4.59684C24.5044 6.28015 25.5673 8.48651 25.8333 10.8537M24.6667 20.1637V23.6637C24.668 23.9886 24.6014 24.3102 24.4713 24.6079C24.3411 24.9056 24.1502 25.1729 23.9108 25.3925C23.6713 25.6122 23.3887 25.7794 23.0809 25.8835C22.7731 25.9876 22.4469 26.0262 22.1233 25.997C18.5333 25.6069 15.0848 24.3802 12.055 22.4153C9.23614 20.6241 6.84623 18.2342 5.055 15.4153C3.08331 12.3717 1.85629 8.90649 1.47334 5.30033C1.44418 4.97771 1.48252 4.65255 1.58592 4.34556C1.68932 4.03857 1.8555 3.75647 2.0739 3.51722C2.29229 3.27798 2.55811 3.08683 2.85443 2.95594C3.15074 2.82506 3.47107 2.7573 3.795 2.757H7.295C7.86119 2.75143 8.41009 2.95192 8.83939 3.32112C9.26869 3.69032 9.54909 4.20302 9.62834 4.76367C9.77606 5.88374 10.05 6.98351 10.445 8.042C10.602 8.45958 10.6359 8.9134 10.5429 9.34969C10.4498 9.78599 10.2337 10.1865 9.92 10.5037L8.43834 11.9853C10.0992 14.9061 12.5175 17.3245 15.4383 18.9853L16.92 17.5037C17.2372 17.19 17.6377 16.9738 18.074 16.8808C18.5103 16.7877 18.9641 16.8217 19.3817 16.9787C20.4402 17.3736 21.5399 17.6476 22.66 17.7953C23.2267 17.8753 23.7443 18.1607 24.1143 18.5974C24.4843 19.0341 24.6809 19.5915 24.6667 20.1637Z" stroke="white" stroke-width="1.5" stroke-linecap="round" stroke-linejoin="round"/>
</svg>
