<svg width="89" height="39" viewBox="0 0 89 39" fill="none" xmlns="http://www.w3.org/2000/svg">
<g clip-path="url(#clip0_3805_6087)">
<path d="M17.0194 38.4239C16.9516 38.4239 16.8849 38.4109 16.8211 38.3848C12.4223 36.6101 8.80455 33.8674 6.0696 30.2338C3.88562 27.3328 2.25959 23.8646 1.23635 19.9244C-0.501267 13.2365 0.0925524 7.58272 0.118457 7.34523C0.146355 7.09471 0.34363 6.89729 0.593712 6.87024C0.61862 6.86723 3.16228 6.59166 6.40437 5.67175C9.3645 4.832 13.5292 3.26875 16.588 0.586166C16.6866 0.483953 16.8231 0.423828 16.9696 0.423828C17.116 0.423828 17.2456 0.480947 17.3432 0.576145C20.4079 3.26975 24.5876 4.83701 27.5577 5.67776C30.7968 6.59467 33.3245 6.86723 33.3494 6.87024C33.5985 6.89629 33.7958 7.0927 33.8237 7.34222C33.8506 7.57971 34.4673 13.2335 32.7546 19.9214C31.7453 23.8616 30.1302 27.3308 27.9542 30.2318C25.2282 33.8664 21.6155 36.6091 17.2167 38.3838C17.1529 38.4099 17.0851 38.4229 17.0184 38.4229L17.0194 38.4239Z" fill="#1BB96B"/>
<path d="M17.0192 36.7044C16.9834 36.7044 16.9485 36.6974 16.9146 36.6834C13.0159 35.0169 9.79676 32.5197 7.34477 29.263C5.28832 26.5313 3.75396 23.2525 2.78452 19.5177C1.55204 14.7698 1.53411 10.6222 1.63374 8.57293C1.63972 8.44566 1.73437 8.34045 1.85892 8.32141C2.98877 8.14404 4.77022 7.80934 6.83863 7.22312C9.6224 6.43348 13.6127 4.97043 16.809 2.48727C16.8568 2.45019 16.9146 2.43115 16.9724 2.43115C17.0302 2.43115 17.087 2.45019 17.1358 2.48727C20.338 4.97545 24.3354 6.43949 27.1261 7.22913C29.1875 7.81335 30.964 8.14604 32.0909 8.32241C32.2154 8.34245 32.3091 8.44667 32.316 8.57293C32.4247 10.6222 32.4247 14.7708 31.2071 19.5217C30.2506 23.2555 28.7272 26.5343 26.6788 29.265C24.2367 32.5217 21.0215 35.0179 17.1248 36.6844C17.091 36.6984 17.0561 36.7055 17.0202 36.7055L17.0192 36.7044Z" fill="#008E03"/>
<path d="M15.2022 26.5743C15.1414 26.5743 15.0806 26.5532 15.0308 26.5111L7.81632 20.4215C7.76252 20.3754 7.72864 20.3102 7.72167 20.2391C7.71569 20.1679 7.73761 20.0978 7.78344 20.0437L9.8359 17.5836C9.88174 17.5295 9.9465 17.4944 10.0172 17.4884C10.0252 17.4884 10.0332 17.4884 10.0402 17.4884C10.1029 17.4884 10.1637 17.5104 10.2115 17.5515L15.1534 21.7232L26.3931 11.8186C26.4439 11.7745 26.5067 11.7524 26.5684 11.7524C26.6422 11.7524 26.7169 11.7835 26.7687 11.8436L28.873 14.2597C28.9198 14.3128 28.9437 14.3829 28.9387 14.4541C28.9338 14.5252 28.9019 14.5913 28.8481 14.6384L15.3766 26.5091C15.3267 26.5532 15.264 26.5753 15.2012 26.5753L15.2022 26.5743Z" fill="#1BB96B"/>
<path d="M15.2018 26.3058L7.9873 20.2161L10.0398 17.756L15.157 22.075L26.5691 12.019L28.6733 14.4351L15.2018 26.3058Z" fill="#F4F4F4"/>
<path d="M38.4823 23.9688C37.9224 23.6511 37.488 23.2102 37.1791 22.647C36.8703 22.0839 36.7158 21.4415 36.7158 20.718V20.1759L38.9137 19.9374V20.5006C38.9137 21.0497 39.0433 21.4836 39.3013 21.8013C39.5594 22.1189 39.9191 22.2783 40.3784 22.2783C40.8377 22.2783 41.1794 22.148 41.4445 21.8884C41.7105 21.6289 41.843 21.2742 41.843 20.8262C41.843 20.3352 41.7025 19.8652 41.4225 19.4173C41.1426 18.9694 40.5856 18.3481 39.7527 17.5534C38.6318 16.4842 37.8676 15.5964 37.4581 14.8879C37.0486 14.1804 36.8443 13.4068 36.8443 12.5691C36.8443 11.4277 37.1532 10.5208 37.7709 9.84941C38.3887 9.17801 39.2366 8.84131 40.3136 8.84131C41.3906 8.84131 42.2385 9.18102 42.8563 9.85943C43.474 10.5388 43.7829 11.4487 43.7829 12.5901V12.9799L41.5849 13.2184V12.7845C41.5849 12.2073 41.4773 11.7664 41.2621 11.4628C41.0469 11.1591 40.738 11.0078 40.3355 11.0078C39.933 11.0078 39.6241 11.1311 39.4089 11.3766C39.1937 11.6221 39.0861 11.9828 39.0861 12.4598C39.0861 12.9368 39.2296 13.3958 39.5165 13.8357C39.8035 14.2766 40.3564 14.9079 41.1754 15.7316C42.2963 16.858 43.0605 17.7649 43.47 18.4513C43.8795 19.1377 44.0838 19.8923 44.0838 20.716C44.0838 21.4385 43.9293 22.0809 43.6205 22.645C43.3116 23.2082 42.8772 23.6491 42.3172 23.9668C41.7573 24.2844 41.1177 24.4438 40.3993 24.4438C39.6809 24.4438 39.0423 24.2844 38.4813 23.9668L38.4823 23.9688Z" fill="#F4F4F4"/>
<path d="M46.0244 9.06104H52.5096V11.2275H48.308V15.4533H51.6478V17.6198H48.308V22.0621H52.5096V24.2296H46.0244V9.06104Z" fill="#F4F4F4"/>
<path d="M55.2228 23.4496C54.5622 22.7852 54.2314 21.9184 54.2314 20.8492V12.4417C54.2314 11.3725 54.5612 10.5057 55.2228 9.84131C55.8834 9.17693 56.7452 8.84424 57.8083 8.84424C58.8714 8.84424 59.7332 9.17693 60.3938 9.84131C61.0544 10.5057 61.3852 11.3725 61.3852 12.4417V14.2184H59.1444V12.4417C59.1444 12.0088 59.0219 11.6621 58.7777 11.4016C58.5336 11.142 58.2178 11.0117 57.8302 11.0117C57.4427 11.0117 57.1258 11.142 56.8827 11.4016C56.6386 11.6611 56.5161 12.0088 56.5161 12.4417V20.8492C56.5161 21.2831 56.6376 21.6298 56.8827 21.8894C57.1268 22.1499 57.4427 22.2792 57.8302 22.2792C58.2178 22.2792 58.5336 22.1489 58.7777 21.8894C59.0219 21.6298 59.1444 21.2831 59.1444 20.8492V18.6827H61.3852V20.8492C61.3852 21.9184 61.0544 22.7852 60.3938 23.4496C59.7332 24.114 58.8714 24.4467 57.8083 24.4467C56.7452 24.4467 55.8834 24.114 55.2228 23.4496Z" fill="#F4F4F4"/>
<path d="M64.381 23.4595C63.7204 22.8022 63.3896 21.9464 63.3896 20.8912V9.05957H65.6733V20.8912C65.6733 21.3251 65.7918 21.6638 66.029 21.9093C66.2661 22.1548 66.571 22.2781 66.9446 22.2781C67.3182 22.2781 67.6231 22.1558 67.8602 21.9093C68.0974 21.6638 68.2159 21.3241 68.2159 20.8912V9.05957H70.4567V20.8912C70.4567 21.9464 70.1339 22.8022 69.4873 23.4595C68.8406 24.1169 67.9927 24.4456 66.9446 24.4456C65.8964 24.4456 65.0416 24.1169 64.381 23.4595Z" fill="#F4F4F4"/>
<path d="M77.9963 24.2296L76.3374 17.9666H75.1528V24.2296H72.8691V9.06104H76.446C77.537 9.06104 78.4068 9.38972 79.0534 10.0471C79.7001 10.7045 80.0229 11.5823 80.0229 12.6796V14.348C80.0229 15.0415 79.8864 15.6558 79.6134 16.1899C79.3404 16.725 78.9528 17.1438 78.4496 17.4465L80.3676 24.2296H77.9973H77.9963ZM75.1518 15.8001H76.3364C76.7818 15.8001 77.1265 15.6778 77.3706 15.4313C77.6147 15.1858 77.7373 14.8391 77.7373 14.3911V12.6355C77.7373 12.1875 77.6147 11.8408 77.3706 11.5953C77.1265 11.3498 76.7818 11.2265 76.3364 11.2265H75.1518V15.7991V15.8001Z" fill="#F4F4F4"/>
<path d="M82.2412 9.06104H88.7264V11.2275H84.5248V15.4533H87.8646V17.6198H84.5248V22.0621H88.7264V24.2296H82.2412V9.06104Z" fill="#F4F4F4"/>
<path d="M38.9277 30.0074C38.9277 29.7989 38.855 29.6386 38.7095 29.5254C38.5641 29.4121 38.301 29.2989 37.9204 29.1837C37.5398 29.0684 37.2379 28.9402 37.0138 28.7989C36.5843 28.5273 36.3691 28.1736 36.3691 27.7367C36.3691 27.3539 36.5245 27.0392 36.8344 26.7917C37.1443 26.5442 37.5468 26.4199 38.041 26.4199C38.3698 26.4199 38.6617 26.481 38.9188 26.6023C39.1758 26.7246 39.3781 26.8969 39.5245 27.1224C39.671 27.3468 39.7447 27.5964 39.7447 27.8699H38.9287C38.9287 27.6224 38.851 27.428 38.6976 27.2887C38.5431 27.1484 38.3219 27.0783 38.035 27.0783C37.767 27.0783 37.5597 27.1354 37.4113 27.2506C37.2628 27.3659 37.1891 27.5262 37.1891 27.7327C37.1891 27.906 37.2688 28.0513 37.4292 28.1676C37.5886 28.2838 37.8527 28.397 38.2193 28.5063C38.587 28.6165 38.8809 28.7407 39.1041 28.881C39.3263 29.0213 39.4897 29.1817 39.5933 29.363C39.6969 29.5444 39.7487 29.7569 39.7487 30.0004C39.7487 30.3962 39.5983 30.7098 39.2964 30.9433C38.9955 31.1768 38.586 31.2941 38.0699 31.2941C37.7281 31.2941 37.4153 31.2309 37.1283 31.1037C36.8424 30.9764 36.6192 30.801 36.4608 30.5776C36.3024 30.3541 36.2227 30.0936 36.2227 29.7959H37.0426C37.0426 30.0655 37.1313 30.2739 37.3087 30.4212C37.486 30.5686 37.7391 30.6427 38.0699 30.6427C38.3548 30.6427 38.569 30.5846 38.7135 30.4683C38.857 30.3521 38.9287 30.1988 38.9287 30.0074H38.9277Z" fill="#F4F4F4"/>
<path d="M42.9336 30.0074C42.9336 29.7989 42.8608 29.6386 42.7154 29.5254C42.5699 29.4121 42.3069 29.2989 41.9263 29.1837C41.5457 29.0684 41.2438 28.9402 41.0196 28.7989C40.5902 28.5273 40.375 28.1736 40.375 27.7367C40.375 27.3539 40.5304 27.0392 40.8403 26.7917C41.1501 26.5442 41.5527 26.4199 42.0468 26.4199C42.3746 26.4199 42.6676 26.481 42.9246 26.6023C43.1817 26.7246 43.3839 26.8969 43.5304 27.1224C43.6768 27.3468 43.7506 27.5964 43.7506 27.8699H42.9346C42.9346 27.6224 42.8569 27.428 42.7034 27.2887C42.549 27.1484 42.3278 27.0783 42.0409 27.0783C41.7728 27.0783 41.5656 27.1354 41.4171 27.2506C41.2687 27.3659 41.195 27.5262 41.195 27.7327C41.195 27.906 41.2747 28.0513 41.4351 28.1676C41.5945 28.2838 41.8585 28.397 42.2252 28.5063C42.5928 28.6165 42.8868 28.7407 43.1099 28.881C43.3321 29.0213 43.4955 29.1817 43.5991 29.363C43.7028 29.5444 43.7546 29.7569 43.7546 30.0004C43.7546 30.3962 43.6041 30.7098 43.3022 30.9433C43.0013 31.1768 42.5918 31.2941 42.0757 31.2941C41.734 31.2941 41.4211 31.2309 41.1342 31.1037C40.8482 30.9764 40.6251 30.801 40.4666 30.5776C40.3082 30.3541 40.2285 30.0936 40.2285 29.7959H41.0485C41.0485 30.0655 41.1372 30.2739 41.3145 30.4212C41.4919 30.5686 41.7449 30.6427 42.0757 30.6427C42.3607 30.6427 42.5749 30.5846 42.7194 30.4683C42.8628 30.3521 42.9346 30.1988 42.9346 30.0074H42.9336Z" fill="#F4F4F4"/>
<path d="M45.2917 30.5714H47.4328V31.2297H44.4717V26.4849H45.2917V30.5714Z" fill="#F4F4F4"/>
<path d="M52.4717 29.1113H50.5339V30.5714H52.7985V31.2297H49.7139V26.4849H52.7756V27.1492H50.5339V28.459H52.4717V29.1103V29.1113Z" fill="#F4F4F4"/>
<path d="M57.2081 31.2288H56.3881L54.2858 27.8628V31.2288H53.4658V26.4839H54.2858L56.3951 29.8629V26.4839H57.2081V31.2288Z" fill="#F4F4F4"/>
<path d="M61.7766 29.6847C61.7287 30.1908 61.5434 30.5856 61.2196 30.8692C60.8958 31.1528 60.4644 31.2941 59.9273 31.2941C59.5517 31.2941 59.2209 31.2049 58.934 31.0255C58.648 30.8461 58.4269 30.5916 58.2714 30.2609C58.116 29.9312 58.0353 29.5474 58.0283 29.1105V28.6676C58.0283 28.2197 58.107 27.8258 58.2645 27.4851C58.4219 27.1444 58.648 26.8809 58.943 26.6965C59.2379 26.5121 59.5786 26.4199 59.9652 26.4199C60.4853 26.4199 60.9048 26.5612 61.2226 26.8448C61.5404 27.1284 61.7247 27.5292 61.7766 28.0483H60.9606C60.9217 27.7076 60.8231 27.4611 60.6636 27.3108C60.5052 27.1595 60.2721 27.0843 59.9652 27.0843C59.6085 27.0843 59.3345 27.2156 59.1442 27.4771C58.9529 27.7387 58.8553 28.1235 58.8513 28.6305V29.0514C58.8513 29.5645 58.943 29.9563 59.1253 30.2258C59.3076 30.4954 59.5746 30.6307 59.9273 30.6307C60.2492 30.6307 60.4913 30.5575 60.6527 30.4122C60.8151 30.2669 60.9177 30.0244 60.9606 29.6857H61.7766V29.6847Z" fill="#F4F4F4"/>
<path d="M64.2414 29.404H63.3278V31.2288H62.5078V26.4839H64.1667C64.7107 26.4839 65.1312 26.6071 65.4271 26.8527C65.723 27.0982 65.8715 27.4539 65.8715 27.9189C65.8715 28.2365 65.7957 28.5021 65.6433 28.7165C65.4909 28.931 65.2786 29.0953 65.0066 29.2106L66.0657 31.1867V31.2288H65.188L64.2414 29.404ZM63.3278 28.7396H64.1697C64.4457 28.7396 64.6619 28.6694 64.8173 28.5291C64.9728 28.3888 65.0505 28.1975 65.0505 27.9539C65.0505 27.7104 64.9787 27.503 64.8353 27.3637C64.6918 27.2244 64.4776 27.1533 64.1916 27.1483H63.3268V28.7386L63.3278 28.7396Z" fill="#F4F4F4"/>
<path d="M68.0318 28.7335L69.1168 26.4849H70.0245L68.4433 29.4831V31.2297H67.6203V29.4831L66.0361 26.4849H66.9468L68.0318 28.7335Z" fill="#F4F4F4"/>
<path d="M71.3561 29.4691V31.2288H70.5361V26.4839H72.3405C72.8676 26.4839 73.286 26.6222 73.5959 26.8977C73.9058 27.1743 74.0612 27.5391 74.0612 27.994C74.0612 28.449 73.9097 28.8218 73.6059 29.0803C73.302 29.3388 72.8775 29.4681 72.3305 29.4681H71.3551L71.3561 29.4691ZM71.3561 28.8047H72.3415C72.6334 28.8047 72.8556 28.7356 73.0091 28.5983C73.1625 28.46 73.2392 28.2606 73.2392 28C73.2392 27.7395 73.1615 27.5391 73.0061 27.3858C72.8506 27.2324 72.6364 27.1543 72.3644 27.1493H71.3571V28.8047H71.3561Z" fill="#F4F4F4"/>
<path d="M78.1856 27.1492H76.715V31.2287H75.902V27.1492H74.4443V26.4849H78.1866V27.1492H78.1856Z" fill="#F4F4F4"/>
<path d="M79.6695 31.2288H78.8535V26.4839H79.6695V31.2288Z" fill="#F4F4F4"/>
<path d="M84.442 28.9813C84.442 29.4462 84.3623 29.8541 84.2018 30.2048C84.0414 30.5556 83.8133 30.8251 83.5164 31.0125C83.2195 31.2009 82.8777 31.2941 82.4911 31.2941C82.1046 31.2941 81.7678 31.1999 81.4689 31.0125C81.17 30.8251 80.9388 30.5566 80.7754 30.2088C80.612 29.8611 80.5293 29.4603 80.5273 29.0063V28.7388C80.5273 28.2758 80.609 27.868 80.7724 27.5132C80.9358 27.1595 81.166 26.8879 81.4629 26.7005C81.7598 26.5131 82.1006 26.4189 82.4852 26.4189C82.8697 26.4189 83.2105 26.5121 83.5074 26.6975C83.8043 26.8829 84.0335 27.1505 84.1959 27.4992C84.3583 27.8479 84.44 28.2538 84.442 28.7167V28.9803V28.9813ZM83.622 28.7338C83.622 28.2077 83.5233 27.8048 83.3251 27.5252C83.1278 27.2447 82.8468 27.1044 82.4842 27.1044C82.1215 27.1044 81.8525 27.2437 81.6532 27.5232C81.4529 27.8028 81.3513 28.1976 81.3473 28.7077V28.9813C81.3473 29.5024 81.448 29.9052 81.6502 30.1898C81.8525 30.4744 82.1325 30.6167 82.4911 30.6167C82.8498 30.6167 83.1328 30.4774 83.3291 30.1998C83.5243 29.9212 83.622 29.5154 83.622 28.9813V28.7338Z" fill="#F4F4F4"/>
<path d="M89.0001 31.2288H88.1801L86.0778 27.8628V31.2288H85.2578V26.4839H86.0778L88.1871 29.8629V26.4839H89.0001V31.2288Z" fill="#F4F4F4"/>
</g>
<defs>
<clipPath id="clip0_3805_6087">
<rect width="89" height="38" fill="white" transform="translate(0 0.423828)"/>
</clipPath>
</defs>
</svg>
