<svg width="251" height="32" viewBox="0 0 251 32" fill="none" xmlns="http://www.w3.org/2000/svg">
<path d="M0 0H235C243.837 0 251 7.16344 251 16C251 24.8366 243.837 32 235 32H0V0Z" fill="url(#paint0_linear_4021_17888)"/>
<path d="M41.26 22V9.4H44.824V19.174H50.836V22H41.26ZM57.6463 22V9.4H61.2103V22H57.6463ZM69.1459 22V9.4H72.0799L77.2999 17.968H75.7519L80.8279 9.4H83.7619L83.7979 22H80.5219L80.4859 14.386H81.0439L77.2459 20.758H75.6619L71.7559 14.386H72.4399V22H69.1459ZM91.7198 22V9.4H95.2838V22H91.7198ZM105.901 22V12.226H102.031V9.4H113.317V12.226H109.465V22H105.901ZM123.321 14.278H129.171V16.942H123.321V14.278ZM123.573 19.246H130.161V22H120.045V9.4H129.927V12.154H123.573V19.246ZM137.539 22V9.4H143.497C144.889 9.4 146.113 9.658 147.169 10.174C148.225 10.69 149.047 11.416 149.635 12.352C150.235 13.288 150.535 14.404 150.535 15.7C150.535 16.984 150.235 18.1 149.635 19.048C149.047 19.984 148.225 20.71 147.169 21.226C146.113 21.742 144.889 22 143.497 22H137.539ZM141.103 19.156H143.353C144.073 19.156 144.697 19.024 145.225 18.76C145.765 18.484 146.185 18.088 146.485 17.572C146.785 17.044 146.935 16.42 146.935 15.7C146.935 14.968 146.785 14.344 146.485 13.828C146.185 13.312 145.765 12.922 145.225 12.658C144.697 12.382 144.073 12.244 143.353 12.244H141.103V19.156ZM171.13 22V12.226H167.26V9.4H178.546V12.226H174.694V22H171.13ZM185.274 22V9.4H188.838V22H185.274ZM196.774 22V9.4H199.708L204.928 17.968H203.38L208.456 9.4H211.39L211.426 22H208.15L208.114 14.386H208.672L204.874 20.758H203.29L199.384 14.386H200.068V22H196.774ZM222.623 14.278H228.473V16.942H222.623V14.278ZM222.875 19.246H229.463V22H219.347V9.4H229.229V12.154H222.875V19.246Z" fill="#192666"/>
<defs>
<linearGradient id="paint0_linear_4021_17888" x1="1.16986e-05" y1="15.4667" x2="123.329" y2="140.5" gradientUnits="userSpaceOnUse">
<stop stop-color="#E0AC42"/>
<stop stop-color="#E0AC42"/>
<stop offset="0.265" stop-color="#EED688"/>
<stop offset="0.57" stop-color="#FFFBCC"/>
<stop offset="1" stop-color="#E0AC42"/>
</linearGradient>
</defs>
</svg>
