<svg width="37" height="38" viewBox="0 0 37 38" fill="none" xmlns="http://www.w3.org/2000/svg">
<g clip-path="url(#clip0_3805_6112)">
<path d="M25.6647 26.3545V11.4814H23.2613L21.0322 12.484V15.4605L22.8504 14.7753V26.3545H25.6647Z" fill="#F4F4F4"/>
<path d="M16.4116 16.1919C16.2849 16.5091 16.1049 16.8176 15.8722 17.1176L10.7467 23.8279V26.3544H19.5801V23.6539H14.4753L18.1526 19.0304C18.5771 18.4918 18.9076 17.8899 19.1438 17.2251C19.3799 16.5601 19.4982 15.8902 19.4982 15.2151V15.2048C19.4982 14.3866 19.3252 13.6875 18.9796 13.1079C18.6338 12.5283 18.1304 12.0867 17.4698 11.7833C16.8089 11.4798 16.0127 11.3281 15.0817 11.3281C14.2189 11.3281 13.4587 11.5037 12.8015 11.8549C12.1441 12.2062 11.6218 12.7158 11.2352 13.3841C10.8482 14.0525 10.6241 14.8503 10.5625 15.7775V15.7878H13.4488V15.7775C13.5104 15.2183 13.6849 14.787 13.9726 14.4836C14.26 14.1802 14.6367 14.0285 15.1026 14.0285C15.5684 14.0285 15.9515 14.1377 16.2118 14.3557C16.4719 14.5739 16.602 14.8842 16.602 15.2866V15.307C16.602 15.5797 16.5387 15.8747 16.412 16.1917L16.4116 16.1919Z" fill="#F4F4F4"/>
<path d="M35.6189 11.8981H33.3144V14.0731C33.8014 15.5756 34.0675 17.1769 34.0675 18.8408C34.0675 27.6492 26.6937 34.7428 17.7582 34.3333C9.77979 33.9677 3.30391 27.5188 2.93696 19.5734C2.52605 10.6745 9.64879 3.33146 18.4938 3.33146C20.1254 3.33146 21.6979 3.58253 23.1759 4.04603H25.3108V1.72573C22.9934 0.806877 20.4499 0.336079 17.7853 0.436719C8.19821 0.799366 0.407283 8.52676 0.0157652 18.073C-0.426174 28.8473 8.48242 37.7047 19.3064 37.2407C28.9189 36.8287 36.6721 29.0106 36.9781 19.4337C37.0637 16.7623 36.5691 14.2143 35.6189 11.8981Z" fill="#DF2127"/>
<path d="M24.7373 8.99045H28.2306V12.2918H31.3675V8.99045H34.8607V5.98498H31.3675V2.68359H28.2306V5.98498H24.7373V8.99045Z" fill="#F4F4F4"/>
</g>
<defs>
<clipPath id="clip0_3805_6112">
<rect width="36.9876" height="36.8347" fill="white" transform="translate(0 0.423828)"/>
</clipPath>
</defs>
</svg>
