<svg width="24" height="24" viewBox="0 0 24 24" fill="none" xmlns="http://www.w3.org/2000/svg">
<path id="Vector" d="M6.76667 0.1H16.5667C20.2448 0.1 23.2333 3.08856 23.2333 6.76667V16.5667C23.2333 18.3348 22.531 20.0305 21.2807 21.2807C20.0305 22.531 18.3348 23.2333 16.5667 23.2333H6.76667C3.08856 23.2333 0.1 20.2448 0.1 16.5667V6.76667C0.1 4.99856 0.802379 3.30286 2.05262 2.05262C3.30286 0.802379 4.99856 0.1 6.76667 0.1ZM6.53333 2.23333C5.3929 2.23333 4.29918 2.68637 3.49277 3.49277C2.68637 4.29918 2.23333 5.3929 2.23333 6.53333V16.8C2.23333 19.1769 4.15644 21.1 6.53333 21.1H16.8C17.9404 21.1 19.0342 20.647 19.8406 19.8406C20.647 19.0342 21.1 17.9404 21.1 16.8V6.53333C21.1 4.15644 19.1769 2.23333 16.8 2.23333H6.53333ZM17.7917 4.18333C18.1519 4.18333 18.4974 4.32644 18.7522 4.58118C19.0069 4.83592 19.15 5.18141 19.15 5.54167C19.15 5.90192 19.0069 6.24742 18.7522 6.50215C18.4974 6.75689 18.1519 6.9 17.7917 6.9C17.4314 6.9 17.0859 6.75689 16.8312 6.50215C16.5764 6.24742 16.4333 5.90192 16.4333 5.54167C16.4333 5.18141 16.5764 4.83592 16.8312 4.58118C17.0859 4.32644 17.4314 4.18333 17.7917 4.18333ZM11.6667 5.93333C13.1872 5.93333 14.6455 6.53738 15.7207 7.61259C16.796 8.6878 17.4 10.1461 17.4 11.6667C17.4 13.1872 16.796 14.6455 15.7207 15.7207C14.6455 16.796 13.1872 17.4 11.6667 17.4C10.1461 17.4 8.6878 16.796 7.61259 15.7207C6.53738 14.6455 5.93333 13.1872 5.93333 11.6667C5.93333 10.1461 6.53738 8.6878 7.61259 7.61259C8.6878 6.53738 10.1461 5.93333 11.6667 5.93333ZM11.6667 8.06667C10.7119 8.06667 9.79621 8.44595 9.12108 9.12108C8.44595 9.79621 8.06667 10.7119 8.06667 11.6667C8.06667 12.6214 8.44595 13.5371 9.12108 14.2123C9.79621 14.8874 10.7119 15.2667 11.6667 15.2667C12.6214 15.2667 13.5371 14.8874 14.2123 14.2123C14.8874 13.5371 15.2667 12.6214 15.2667 11.6667C15.2667 10.7119 14.8874 9.79621 14.2123 9.12108C13.5371 8.44595 12.6214 8.06667 11.6667 8.06667Z" fill="#1BB96B" stroke="#192666" stroke-width="0.2"/>
</svg>
