<?xml version="1.0" encoding="UTF-8"?>
<svg id="Layer_1" data-name="Layer 1" xmlns="http://www.w3.org/2000/svg" viewBox="0 0 30.07 23">
  <defs>
    <style>
      .cls-1 {
        fill: #192666;
      }
    </style>
  </defs>
  <path class="cls-1" d="m15.63,14.57c-.57,0-1.12-.03-1.65-.07-.29.68-.69,1.32-1.2,1.89.95.14,1.92.22,2.89.24l-.04-1.95v-.1Z"/>
  <path class="cls-1" d="m13.11,10.87c-.46-2.04-2.09-3.7-4.25-4.32-.6-.17-1.22-.25-1.84-.25-1.55,0-3.04.53-4.19,1.49C.29,9.91.11,13.54,2.41,15.88c2.31,2.34,6.24,2.51,8.78.38,1.3-1.09,2.04-2.62,2.03-4.24,0-.39-.04-.78-.12-1.16Zm-5.34,4.65v.51c0,.32-.28.58-.62.58s-.62-.26-.62-.58v-.5c-1.03-.26-1.74-1.12-1.75-2.1,0-.32.28-.58.62-.58s.62.26.62.58c0,.56.5,1.02,1.11,1.02s1.1-.46,1.1-1.02-.5-1.02-1.11-1.02c-1.07,0-2-.66-2.27-1.61-.34-1.16.41-2.35,1.67-2.66v-.25c0-.32.28-.58.62-.58s.62.26.62.58v.26c1.02.26,1.72,1.12,1.72,2.09,0,.32-.28.58-.62.58s-.62-.26-.62-.58c0-.56-.5-1.02-1.11-1.02s-1.1.45-1.11,1.02c0,.56.5,1.02,1.11,1.02,1.05,0,1.98.64,2.27,1.58.36,1.16-.37,2.35-1.63,2.68Z"/>
  <path class="cls-1" d="m9.58,2.46c.03.13.41.52,1.75.87,1.24.33,2.88.52,4.6.52s3.53-.2,4.8-.55c1.35-.37,1.66-.77,1.66-.85,0-.07-.3-.47-1.65-.85-1.27-.36-3.02-.56-4.8-.56s-3.48.2-4.74.56c-1.32.37-1.6.74-1.61.85,0,0,0,0,0,.01Z"/>
  <path class="cls-1" d="m15.62,13.41l-.04-2.04c-.39,0-.77-.02-1.13-.04.02.23.03.45.03.68,0,.45-.05.9-.14,1.35.41.03.84.05,1.28.05Z"/>
  <path class="cls-1" d="m22.45,3.89c-.43.21-.89.37-1.35.5-1.4.39-3.24.6-5.17.6s-3.59-.2-4.95-.56c-.47-.12-.92-.28-1.35-.48l.04,1.62c.7.24,1.36.59,1.95,1.02.02,0,.03,0,.05.01,1.2.28,2.71.43,4.25.43,1.78,0,3.54-.21,4.8-.56,1.35-.38,1.65-.78,1.65-.85,0-.08,0-.16.06-.24v-1.51Z"/>
  <path class="cls-1" d="m23.16,13.7c-1.84,0-3.59-.2-4.95-.56-.47-.12-.92-.28-1.36-.48l.02,1.32v.48c.49.56,2.82,1.28,6.28,1.28,1.8,0,3.51-.2,4.79-.55,1.35-.38,1.64-.77,1.64-.85,0-.06.04-.13.04-.19h0v-1.53c-.44.21-.89.37-1.37.49-1.39.38-3.2.59-5.1.59Z"/>
  <path class="cls-1" d="m22.43,7.1c-.43.2-.88.37-1.35.49-1.4.39-3.24.6-5.17.6-.95,0-1.89-.06-2.83-.17.51.64.88,1.37,1.12,2.14.54.03,1.12.06,1.72.06h.06c1.02-1.04,3.77-1.55,6.45-1.62v-1.51Z"/>
  <path class="cls-1" d="m29.61,15.8c-.42.2-.85.36-1.31.49-1.4.39-3.23.6-5.15.6-1.71,0-3.38-.18-4.69-.49-.54-.13-1.05-.3-1.55-.52l.03,1.67h0c0,.1.27.48,1.59.86,1.25.35,2.93.55,4.74.55s3.49-.2,4.75-.56c1.32-.38,1.6-.78,1.6-.86h0v-1.73Z"/>
  <path class="cls-1" d="m18.57,12.04c1.24.33,2.88.51,4.6.51s3.46-.19,4.74-.54c1.39-.38,1.7-.78,1.7-.86h0c0-.09-.32-.47-1.65-.84-1.27-.36-3.02-.55-4.8-.55h-.11c-1.66,0-3.24.17-4.45.49-1.29.33-1.73.71-1.79.87,0,.01,0,.02,0,.02v.02c.05.12.42.52,1.76.87Z"/>
</svg>