<svg width="31" height="20" viewBox="0 0 31 20" fill="none" xmlns="http://www.w3.org/2000/svg">
<path d="M15.9293 14.5372C15.361 14.5315 14.8175 14.503 14.2925 14.4631C14.0084 15.141 13.6069 15.7733 13.1066 16.3372C14.0516 16.4796 15.009 16.5594 15.9663 16.5708L15.9293 14.6397V14.5372Z" fill="white"/>
<path d="M13.4278 10.8687C12.9707 8.84648 11.3586 7.20592 9.21538 6.59071C8.62243 6.42552 8.01096 6.34007 7.39331 6.34007C5.86153 6.34007 4.37916 6.86414 3.24885 7.81544C0.735007 9.9231 0.555887 13.5175 2.8412 15.8359C5.12652 18.1544 9.02391 18.3196 11.5378 16.2119C12.8225 15.1353 13.5575 13.6144 13.5513 12.0137C13.5513 11.632 13.5081 11.2447 13.4278 10.8687ZM8.14192 15.4714V15.9727C8.14192 16.286 7.86398 16.5423 7.52427 16.5423C7.18456 16.5423 6.90662 16.286 6.90662 15.9727V15.4771C5.88749 15.2207 5.18336 14.372 5.17719 13.3979C5.17719 13.0846 5.45513 12.8283 5.79484 12.8283C6.13455 12.8283 6.41249 13.0846 6.41249 13.3979C6.41249 13.9561 6.90662 14.4062 7.51192 14.4062C8.11722 14.4062 8.60516 13.9504 8.60516 13.3922C8.60516 12.834 8.11104 12.3839 7.50574 12.3839C6.44955 12.3839 5.52925 11.7289 5.25748 10.7889C4.92395 9.64398 5.66513 8.46482 6.90662 8.15722V7.91228C6.90662 7.59897 7.18456 7.34264 7.52427 7.34264C7.86398 7.34264 8.14192 7.59897 8.14192 7.91228V8.16861C9.1487 8.43065 9.84047 9.27941 9.84047 10.2421C9.84047 10.5554 9.56252 10.8117 9.22281 10.8117C8.88311 10.8117 8.60516 10.5554 8.60516 10.2421C8.60516 9.68385 8.11104 9.22814 7.50574 9.22814C6.90044 9.22814 6.41249 9.67816 6.40632 10.2421C6.40632 10.8003 6.90044 11.2504 7.50574 11.2504C8.54957 11.2504 9.46988 11.8884 9.754 12.8169C10.1061 13.9618 9.3834 15.1467 8.14192 15.4714Z" fill="white"/>
<path d="M9.93186 2.54628C9.96274 2.6716 10.3333 3.05896 11.6613 3.41213C12.8904 3.74252 14.5087 3.92481 16.2134 3.92481C17.9181 3.92481 19.7093 3.72543 20.9631 3.37795C22.3034 3.00769 22.6061 2.61464 22.6061 2.53489C22.6061 2.46084 22.3096 2.07348 20.9693 1.69752C19.7155 1.34435 17.9799 1.14497 16.2134 1.14497C14.4469 1.14497 12.7669 1.34435 11.5192 1.69752C10.216 2.06209 9.93186 2.42666 9.92568 2.53489C9.92568 2.53489 9.93186 2.53489 9.93186 2.54628Z" fill="white"/>
<path d="M15.9107 13.3922L15.8737 11.3757C15.4907 11.37 15.114 11.3586 14.7557 11.3358C14.7743 11.5637 14.7866 11.7858 14.7866 12.008C14.7866 12.4523 14.7372 12.9023 14.6446 13.3409C15.0522 13.3694 15.4784 13.3865 15.9107 13.3922Z" fill="white"/>
<path d="M22.674 3.96468C22.2479 4.16975 21.797 4.33495 21.3337 4.46027C19.944 4.84762 18.1219 5.05839 16.2196 5.05839C14.3172 5.05839 12.6619 4.86471 11.3216 4.50584C10.8583 4.39191 10.4136 4.23241 9.98745 4.03304L10.0307 5.63942C10.7286 5.87867 11.3772 6.22045 11.9639 6.64768C11.9825 6.65338 11.9948 6.65338 12.0133 6.65907C13.1992 6.93819 14.694 7.0863 16.2196 7.0863C17.9861 7.0863 19.7217 6.88123 20.9755 6.53375C22.3158 6.15779 22.6123 5.76474 22.6123 5.69069C22.6123 5.61094 22.6061 5.53688 22.674 5.45714V3.96468Z" fill="white"/>
<path d="M23.3782 13.6713C21.5561 13.6713 19.8205 13.4776 18.4802 13.1188C18.0169 12.9991 17.566 12.8396 17.1337 12.6403L17.1584 13.9504L17.1646 14.4289C17.6463 14.9815 19.9502 15.6935 23.372 15.6935C25.157 15.6935 26.8432 15.4999 28.1094 15.1467C29.4435 14.7707 29.7338 14.3834 29.7338 14.3036C29.7338 14.241 29.7709 14.1726 29.7709 14.1156H29.777V12.6004C29.3447 12.8055 28.8938 12.9707 28.4244 13.0903C27.047 13.4662 25.2558 13.6713 23.3782 13.6713Z" fill="white"/>
<path d="M22.6617 7.14326C22.2355 7.34264 21.7908 7.50783 21.3276 7.63315C19.9378 8.02051 18.1158 8.23127 16.2072 8.23127C15.2684 8.23127 14.3357 8.17431 13.4092 8.06608C13.9095 8.70407 14.2801 9.42182 14.5148 10.1851C15.046 10.2193 15.6204 10.2421 16.2134 10.2421H16.2752C17.2881 9.21675 20.012 8.70407 22.6617 8.63572V7.14326Z" fill="white"/>
<path d="M29.7647 15.7505C29.3509 15.9442 28.9185 16.1094 28.4676 16.2347C27.0841 16.622 25.2744 16.8328 23.3658 16.8328C21.6734 16.8328 20.0243 16.6562 18.7272 16.3429C18.1961 16.2176 17.6834 16.0467 17.1893 15.8246L17.2202 17.4765V17.4879C17.2202 17.5733 17.4919 17.955 18.7952 18.3253C20.0305 18.6727 21.6981 18.8664 23.4832 18.8664C25.2682 18.8664 26.9358 18.667 28.1835 18.3082C29.4868 17.9322 29.7709 17.5392 29.7709 17.4594H29.7647V15.7505Z" fill="white"/>
<path d="M18.8322 12.0365C20.0614 12.3612 21.6796 12.5434 23.3843 12.5434C25.0891 12.5434 26.8123 12.3555 28.0785 12.008C29.4497 11.632 29.7585 11.239 29.7647 11.1535V11.1478C29.7585 11.0624 29.4497 10.6864 28.1341 10.3218C26.8741 9.96867 25.1447 9.78069 23.3782 9.78069H23.2732C21.6302 9.78069 20.0675 9.95158 18.8693 10.2649C17.5908 10.5953 17.1522 10.9712 17.0966 11.125C17.0905 11.1364 17.0905 11.1421 17.0905 11.1478L17.1028 11.1706C17.1399 11.2902 17.5043 11.6833 18.8322 12.0365Z" fill="white"/>
</svg>
